<svg xmlns="http://www.w3.org/2000/svg" width="1024" height="1024" viewBox="0 0 1024 1024"><defs><style>.a{fill:#448aff;}</style></defs><title>logo</title><path class="a" d="M408.7115,635.0355q9.501-14.5016,9.5034-34.2621,0-19.7526-9.5034-34.387-9.5074-14.6312-27.01-22.5085Q364.1935,536,340.437,536H291l.3505,161c.017,7.4273,23.1319,21.8458,44.4987,28.5437a3.5827,3.5827,0,0,0,4.6666-3.41v-1.9523l.0021-54.8853h-.0811q23.7568,0,41.2646-7.8784Q399.2039,649.5408,408.7115,635.0355Zm-35.1568-15.38q-7.7549,6.629-23.0084,6.6268H340.518V575.0138h10.0284q15.2521,0,23.0084,6.7528,7.7493,6.7522,7.7531,19.0068Q381.3078,613.03,373.5547,619.6553Z"/><rect class="a" x="445.6154" y="546.5662" width="47.5169" height="182.0795"/><path class="a" d="M540.3123,659.2454q-14.7592,10.6333-14.7549,29.8866a39.4047,39.4047,0,0,0,5.8768,21.3818q5.8737,9.3786,17.3813,14.8809,11.5,5.4976,27.26,5.5023,29.7585,0,40.0146-19.7579v17.5067h44.2654v-75.277q0-31.7574-17.7563-47.1414-17.7617-15.38-51.5181-15.3813a130.2117,130.2117,0,0,0-32.387,4.127q-16.1308,4.1259-27.3845,11.6287l16.0054,32.2616a52.7029,52.7029,0,0,1,17.0062-8.6274,66.0121,66.0121,0,0,1,19.7568-3.1262q27.5083,0,28.76,21.5078H585.8287Q555.0676,648.6174,540.3123,659.2454Zm72.5259,14.1308V685.13a22.2839,22.2839,0,0,1-9.003,11.7547,26.316,26.316,0,0,1-14.5052,4.0011q-8.2527,0-13.0046-3.7515a12.0956,12.0956,0,0,1-4.7517-10.0038q0-13.7509,20.7571-13.7542Z"/><path class="a" d="M699.5055,593.0972V728.6456h43.0328V663.1227q0-16.0028,6.6818-24.0087,6.6774-8.0022,17.7794-8.0032,20.1554,0,20.1574,27.76v69.7747H830.19V651.1183q0-30.2578-13.9288-45.2667-13.93-15.0057-36.8052-15.0057a53.5106,53.5106,0,0,0-21.7421,4.3766,48.7349,48.7349,0,0,0-17.2131,12.63V593.0972Z"/><path d="M727.2921,844.9554q-59.3606,4.1335-118.3466,4.7508c-65.1853.5988-129.0436-2.76-190.5737-12.8956-42.6414-7.0242-82.9733-17.2173-118.9377-33.2135-28.9-12.8538-52.8564-26.9673-71.7417-47.5317-.5873-.8362-1.2061-1.6739-1.8871-2.5121-12.7537-15.6968-12.9175-21.5293-15.07-32.2939-3.8843-19.4215-6.8554-56.8839-6.4587-78.5818,1.2084-66.111,5.5673-185.6913,5.5724-190.301.0075-6.7477-.3533-8.0467,0-14.8.1339-2.5582.2593-28.496,1.2334-30.834,6.1669-14.8,18.9362-34.1686,23.4338-40.701,58.2969-84.6689,80.1689-125.8032,146.77-207.2051,2.0488-2.5038,46.2022-60.3311,49.3346-64.1349,6.5314,6.8422,27.4553,38.5388,32.0674,45.6345,16.0338,24.6673,27.134,38.2344,44.4011,64.1349,34.9016,52.3523,63.9268,91.0949,101.1358,141.8367,3.3443,4.5608,13.1131,17.665,17.267,23.434-70.2252-22.3795-134.4334-27.0881-199.8049-23.434-18.0231,1.0076-54.0851,7.4864-71.5349,12.3337-44.4012,12.3337-66.4584,24.8179-67.8352,25.9006,4.8878,0,55.5014-9.8668,114.7029-11.1,9.8646-.2056,34.534-1.2335,43.1676-1.2335,30.3635,0,57.5521,2.9282,87.5689,7.4,34.46,5.134,72.6,15.3325,103.6025,30.834,2.4667,1.2334,6.1668,3.7,6.1668,8.6336,0,0,.0018,8.41,0,8.6335,0,0-2.204,21.8243,2.9156,75.0046,1.0148,10.5415,15.6588,6.4046,25.9006,6.1668,5.0023-.116,15.9926-1.8851,20.9671-2.4667,6.2173-.7269,12.0853-8.5164,12.3337-14.8.6793-17.1863-1.9429-31.9276-2.0867-35.1652l-4.529-50.94c-1.5162-9.7312,1.2335-17.267-9.8669-20.9673-3.87-1.29-3.996-8.1435-4.9335-12.3336-2.7714-12.3857-19.2353-30.0674-25.9007-40.701-16.9578-27.053-34.84-52.2236-55.5013-76.4686-43.2983-50.8081-81.402-106.0692-125.8031-154.1705C468.7687,94.0937,438,60.2641,430.6206,54c-5.3064,5.1057-32.4043,32.4448-37.0009,37.0009-41.15,40.7873-108.8082,119.1859-145.537,164.0374-26.8273,32.76-34.8,40.9-57.968,76.4686C183,342.43,181.4811,345.0737,164.214,367.2744c-1.174,1.5094-21.1113,23.2859-23.4339,30.8341-4.9335,16.0336-6.1668,25.9006-6.1668,48.1012,0,13.1542-.8061,40.1527-1.3839,45.7629l-.5566,29.8731c-4.6487,1.1871-12.6449,3.0107-16.91,6.6662-7.1345,6.2427-10.7017,11.5935-13.3771,20.5116-.3624,1.208-2.6264,8.441-4.4591,15.1609-2.6754,9.81-1.7836,7.1345-3.5672,16.9444-1.4446,7.9455-.8918,8.9183-1.7837,34.7808-.8968,26.0084,1.9136,52.4626,11.9477,88.3823.3777.9705,2.7919,9.6408,3.1815,10.6246,15.4615,43.445,44.6556,71.8621,67.3447,89.1494,42.3387,32.2587,98.7194,43.8767,156.8378,53.2272,50.4918,8.1235,102.6683,11.5858,155.8379,12.2637,43.366.5529,87.02-.741,130.8809-3.55,34.8882-2.2345,69.77-5.8149,104.6724-10.1929,39.2094-4.9183,78.2169-11.191,117.1248-18.3331a114.7233,114.7233,0,0,0,14.5046-3.2827c-11.507,1.1095-23.0179,2.35-34.52,3.3036C789.3527,840.0739,758.3057,842.7957,727.2921,844.9554Z"/></svg>